<?xml version="1.0" encoding="utf-8"?>
<!-- Generator: Adobe Illustrator 24.3.0, SVG Export Plug-In . SVG Version: 6.00 Build 0)  -->
<svg version="1.1" id="Слой_1" xmlns="http://www.w3.org/2000/svg" xmlns:xlink="http://www.w3.org/1999/xlink" x="0px" y="0px"
	 viewBox="0 0 841.89 595.28" style="enable-background:new 0 0 841.89 595.28;" xml:space="preserve">
<style type="text/css">
	.st0{fill:none;stroke:#d10a11;stroke-width:18;stroke-linecap:round;stroke-miterlimit:10;}
</style>
<polyline class="st0" points="250.69,227.41 286.81,227.41 286.81,370.4 "/>
<polyline class="st0" points="275.92,187.33 326.88,187.33 328.86,370.4 "/>
<path class="st0" d="M501.05,265.01c-0.91-3.72-4.39-16.01-16.33-25.23c-10.59-8.18-21.69-9.22-25.73-9.4
	c-3.1-0.35-17.56-1.64-30.68,8.41c-11.93,9.15-15.01,21.75-15.83,26.22c-4.68,25.35,16.05,43.77,17.44,44.96
	c13.35,11.48,28.76,12.41,34,12.48c30.02-0.18,60.04-0.36,90.07-0.55c31.5,0.49,63,0.99,94.5,1.48"/>
<path class="st0" d="M540.14,266.99c-1.3-7.41-7.45-37.42-35.09-58.18c-4.44-3.34-22.37-14.84-48.73-17.81
	c-5.86-0.66-33.26-3.11-58.11,15.93c-22.6,17.32-28.43,41.21-29.99,49.67c-6.55,35.45,11.9,68.01,33.03,85.17
	c17.45,14.17,37.73,18.69,43.51,19.91c12.03,2.55,21.48,2.35,25.11,2.28c26.47-0.48,90.76,0.26,180.01,1.55"/>
</svg>
