<?xml version="1.0" encoding="utf-8"?>
<!-- Generator: Adobe Illustrator 24.3.0, SVG Export Plug-In . SVG Version: 6.00 Build 0)  -->
<svg version="1.1" id="Слой_1" xmlns="http://www.w3.org/2000/svg" xmlns:xlink="http://www.w3.org/1999/xlink" x="0px" y="0px"
	 viewBox="0 0 841.89 595.28" style="enable-background:new 0 0 841.89 595.28;" xml:space="preserve">
<style type="text/css">
	.st0{fill:#FFFFFF;}
	.st1{fill:none;stroke:#FFFFFF;stroke-width:18;stroke-linecap:round;stroke-miterlimit:10;}
</style>
<g>
	<path class="st0" d="M238.41,367.7c-0.05-4.1,0.27-10.1,2.22-16.94c1.14-3.99,4.83-15.26,26.81-37.81
		c5.76-5.91,10.54-10.36,24.45-24.54c8.4-8.57,12.43-12.81,13.31-19.73c0.92-7.24-1.92-15.05-7.32-20.32
		c-4.37-4.27-10.94-6.96-20.39-6.96c-12.67,0-23.2,6.44-29.64,11.81l-6.01-13.31c9.66-8.16,23.41-14.18,39.52-14.18
		c13.74,0,23.84,4.3,30.77,10.89c12.32,11.71,12.03,27.59,11.97,29.71c-0.43,13.81-8.29,23.28-13.51,29.55
		c-4.92,5.91-5.56,4.54-17.42,15.84c-5.18,4.94-11.84,11.33-19.07,20.28c-3.95,4.89-9.06,11.76-14.29,20.59
		c22.58-0.19,45.15-0.37,67.73-0.56v15.68H238.41z"/>
	<path class="st0" d="M373.6,367.7v-38.01h-64.86v-12.46l62.28-89.13h20.4v86.77h19.54v14.82h-19.54v38.01H373.6z M373.6,314.87
		v-46.61c0-7.3,0.21-14.6,0.64-21.91h-0.64c-4.3,8.16-7.73,14.18-11.6,20.62l-34.15,47.46v0.43H373.6z"/>
</g>
<polyline class="st1" points="426.04,213.15 426.04,283.22 494.35,283.22 "/>
<path class="st1" d="M312.84,205.76c6.92-10.13,23.84-31.95,54.29-46.43c10.65-5.06,36.14-15.5,69.5-12.86
	c49.97,3.95,81.06,34.36,87,40.38c43.75,44.39,39.66,101.46,39.03,108.51c-0.66,7.48-6.32,61.1-53.3,96.82
	c-45.98,34.95-105.43,32.93-145.07,13.54c-10.07-4.93-17.8-10.46-23.11-14.74"/>
</svg>
