<?xml version="1.0" encoding="utf-8"?>
<!-- Generator: Adobe Illustrator 24.3.0, SVG Export Plug-In . SVG Version: 6.00 Build 0)  -->
<svg version="1.1" id="Слой_1" xmlns="http://www.w3.org/2000/svg" xmlns:xlink="http://www.w3.org/1999/xlink" x="0px" y="0px"
	 viewBox="0 0 841.89 595.28" style="enable-background:new 0 0 841.89 595.28;" xml:space="preserve">
<style type="text/css">
	.st0{fill:none;stroke:#FFFFFF;stroke-width:7;stroke-linecap:round;stroke-miterlimit:10;}
	.st1{fill:#FFFFFF;stroke:#FFFFFF;stroke-width:7;stroke-linecap:round;stroke-miterlimit:10;}
	.st2{fill:#FFFFFF;stroke:#FFFFFF;stroke-width:6;stroke-miterlimit:10;}
</style>
<path class="st0" d="M546.83,206.99c2.01,27.72,3.88,96.58-30.43,154.74c-7.7,13.05-19.02,32.2-42.31,46.21
	c-20.53,12.35-40.73,14.99-52.38,15.56"/>
<path class="st0" d="M295.06,206.99c-1.41,19.35-2.74,58.75,8.26,100.56c4.76,18.08,11.82,36.62,22.18,54.18
	c18.36,31.12,37.79,43.5,42.31,46.21c21.21,12.74,42.14,15.14,53.91,15.56"/>
<path class="st0" d="M295.31,205.46c19.18-11.19,63.55-33.62,124.21-33.68c62.7-0.07,108.29,23.8,127.32,35.21"/>
<path class="st0" d="M295.31,227.79c20.76-11.32,62.43-30.44,118.25-31.87c64.2-1.65,111.96,20.99,132.93,32.57"/>
<path class="st0" d="M302.49,304.32c-0.01-4.48,0.55-52.93,34.01-72.58c36.06-21.18,81.79,7.85,97.68,17.93
	c21.9,13.9,34.03,30.37,47.44,48.57c23.84,32.36,25.08,50.9,25.27,55.92c0.47,12.44-2.45,22.67-4.93,29.24"/>
<path class="st0" d="M331.02,345.17c-3.95-6.77-11.4-21.75-10.88-41.73c0.2-7.72,0.93-25.58,13.79-41.69
	c2.44-3.05,9.06-11.17,20.06-16.3c20.08-9.37,40.97-2.34,53.19,1.78c50.13,16.88,83.78,67.41,93.17,82.36"/>
<path class="st0" d="M373.44,242.62c-6.78,6.11-16.82,16.74-24.45,32.6c-5.7,11.86-8.17,22.72-9.31,30.59"/>
<path class="st0" d="M464.66,353.59c0.08,20.47-8.43,49.93-30.72,60.28c-36.63,17-101.59-21.73-103.13-72.19
	c-0.98-32.33,24.12-67.88,56.31-72.07C428,264.3,464.49,311.62,464.66,353.59z"/>
<path class="st0" d="M425.79,340.11c2.89,15.46-5.24,33.56-18.49,37.93c-18.61,6.13-44.56-15.73-43.57-38.24
	c0.54-12.19,9.02-25.75,21.94-29.15C403.14,306.05,422.35,321.73,425.79,340.11z"/>
<path class="st1" d="M543.65,390.27"/>
<circle class="st2" cx="410.26" cy="319.9" r="16.11"/>
<path class="st1" d="M519.32,423.5"/>
</svg>
