<?xml version="1.0" encoding="utf-8"?>
<!-- Generator: Adobe Illustrator 24.3.0, SVG Export Plug-In . SVG Version: 6.00 Build 0)  -->
<svg version="1.1" id="Слой_1" xmlns="http://www.w3.org/2000/svg" xmlns:xlink="http://www.w3.org/1999/xlink" x="0px" y="0px"
	 viewBox="0 0 841.89 595.28" style="enable-background:new 0 0 841.89 595.28;" xml:space="preserve">
<style type="text/css">
	.st0{opacity:0.95;fill:none;stroke:#FFFFFF;stroke-width:9;stroke-linecap:round;stroke-miterlimit:10;}
</style>
<g>
	<path class="st0" d="M523.09,199.8c2.37,1.54,6.59,4.75,9.85,10.3c3.78,6.44,4.12,12.68,4.27,16c0.53,11.88,0.71,37.08-0.27,70.25
		c-0.15,4.86-1.01,12.86-5.1,21.6c-7.52,16.05-20.71,23.39-24.86,25.63c-17.33,9.32-34,7.03-39.32,6.08
		c-16.93,26.74-33.85,53.48-50.78,80.22c-4.95,6.6-15.31,18.11-31.33,20.4c-2.34,0.33-4.1,0.44-5.39,0.4
		c-7.06-0.24-14.77-3.84-39.57-13.54c-20.59-8.06-40.78-17.11-61.45-24.93c-8.92-3.37-12.21-6.19-14.66-8
		c-4.38-3.23-8.63-6.44-11.46-12.26c-0.34-0.71-2.35-4.93-2.67-10.4c-0.73-12.56,7.93-23.12,10.26-25.99
		c43.86-54.02,125.58-166.77,125.58-166.77c2.08-2.8,5.79-7,11.6-9.86c8.85-4.36,17.56-3.16,22.4-2.43
		c35.33,5.35,61.05,12.56,61.05,12.56C490.91,191.75,505.27,195.62,523.09,199.8z"/>
	<path class="st0" d="M504.95,288.35c-12.84,21.08-25.68,42.17-38.52,63.25"/>
	<path class="st0" d="M398.97,197.97c-40.93,55.32-81.85,110.65-122.78,165.97c37.33,13.73,74.65,27.46,111.98,41.19
		c38.13-60.79,76.25-121.58,114.38-182.36C468.02,214.5,433.49,206.23,398.97,197.97z"/>
	<path class="st0" d="M422.96,173.17c10.53-14.62,21.06-29.24,31.59-43.86c2.4,4.27,4.8,8.53,7.2,12.8c7.47-2.67,14.93-5.33,22.4-8
		c2,5.22,4,10.44,6,15.66c8.75-2.56,17.51-5.11,26.26-7.67c0.31,5.42,0.62,10.84,0.93,16.26c8.4-1.87,16.8-3.73,25.2-5.6
		c-8.47,15.2-16.94,30.4-25.41,45.6c2.74,1.81,7.31,5.46,8.61,11.19c0.47,2.04,0.77,5.47-1.2,10.4
		c-3.77,9.46-23.17,42.73-50.79,86.78c-29.51,52.24-53.81,91.09-65.99,107.18c-4.53,5.99-9.99,11.41-18.04,14.33
		c-13.82,5.01-26.36-0.83-26.36-0.83c-17.15-6.68-34.3-13.35-51.46-20.03c-14.4-5.07-28.79-10.13-43.19-15.2
		c-1.83-0.64-7.17-2.05-11.73-6.67c-3.74-3.79-5.42-8.1-6.23-10.84"/>
</g>
</svg>
